<svg width="16" height="14" viewBox="0 0 16 14" fill="none" xmlns="http://www.w3.org/2000/svg">
<g clip-path="url(#clip0_544_809)">
<path d="M11.8127 13.8474H3.39014C2.99125 13.8474 2.60869 13.6999 2.32663 13.4374C2.04457 13.1748 1.88611 12.8187 1.88611 12.4474V1.4C1.88611 1.0287 2.04457 0.672601 2.32663 0.410051C2.60869 0.1475 2.99125 0 3.39014 0L11.8127 0C12.2116 0 12.5942 0.1475 12.8762 0.410051C13.1583 0.672601 13.3168 1.0287 13.3168 1.4V1.96C13.3168 2.03426 13.2851 2.10548 13.2286 2.15799C13.1722 2.2105 13.0957 2.24 13.0159 2.24C12.9362 2.24 12.8597 2.2105 12.8032 2.15799C12.7468 2.10548 12.7151 2.03426 12.7151 1.96V1.4C12.7151 1.17722 12.6201 0.963561 12.4508 0.80603C12.2816 0.6485 12.0521 0.56 11.8127 0.56H3.39014C3.1508 0.56 2.92127 0.6485 2.75203 0.80603C2.5828 0.963561 2.48772 1.17722 2.48772 1.4V12.4474C2.48772 12.6702 2.5828 12.8838 2.75203 13.0414C2.92127 13.1989 3.1508 13.2874 3.39014 13.2874H11.8127C12.0521 13.2874 12.2816 13.1989 12.4508 13.0414C12.6201 12.8838 12.7151 12.6702 12.7151 12.4474V7.56C12.7151 7.48574 12.7468 7.41452 12.8032 7.36201C12.8597 7.3095 12.9362 7.28 13.0159 7.28C13.0957 7.28 13.1722 7.3095 13.2286 7.36201C13.2851 7.41452 13.3168 7.48574 13.3168 7.56V12.4474C13.3168 12.8187 13.1583 13.1748 12.8762 13.4374C12.5942 13.6999 12.2116 13.8474 11.8127 13.8474Z" fill="#FF8202" stroke="#FF8202" stroke-width="0.5"/>
<path d="M4.59331 11.7602C4.55361 11.7602 4.51431 11.753 4.47765 11.7388C4.441 11.7246 4.40772 11.7038 4.37974 11.6776C4.34159 11.6414 4.31472 11.5962 4.30201 11.5469C4.28929 11.4976 4.29121 11.446 4.30754 11.3976L5.51077 8.03761C5.52543 7.9965 5.55015 7.95912 5.58296 7.92841C11.5119 2.35081 11.6217 2.29621 11.6773 2.26961C11.7339 2.24338 11.7979 2.2344 11.8603 2.24395C11.9226 2.2535 11.9802 2.28109 12.0247 2.32281L14.4312 4.56281C14.4872 4.61527 14.5187 4.68624 14.5187 4.76021C14.5187 4.83418 14.4872 4.90515 14.4312 4.95761L8.41505 10.5576C8.38222 10.5887 8.34205 10.6122 8.29774 10.6262L4.68806 11.7462C4.65749 11.7556 4.62549 11.7603 4.59331 11.7602ZM6.05974 8.27141L5.06858 11.0378L8.04055 10.1152L13.7935 4.76021L11.8036 2.90801C11.0215 3.61501 8.08717 6.36321 6.05974 8.27141Z" fill="#FF8202" stroke="#FF8202" stroke-width="0.5"/>
<path d="M6.99974 9.52023C6.92009 9.51992 6.84382 9.49022 6.78767 9.43763L5.58444 8.31763C5.53516 8.26407 5.50941 8.19517 5.51234 8.1247C5.51526 8.05423 5.54665 7.98738 5.60022 7.93752C5.65379 7.88765 5.7256 7.85844 5.80131 7.85572C5.87702 7.85299 5.95104 7.87696 6.00858 7.92283L7.21181 9.04283C7.25362 9.08199 7.28207 9.13177 7.29357 9.18593C7.30507 9.24009 7.29912 9.29621 7.27646 9.34723C7.25379 9.39825 7.21543 9.44189 7.1662 9.47267C7.11696 9.50346 7.05905 9.52 6.99974 9.52023ZM12.4143 6.72023C12.3346 6.71992 12.2583 6.69022 12.2022 6.63763L9.7822 4.38643C9.75425 4.36042 9.73208 4.32954 9.71696 4.29555C9.70183 4.26156 9.69405 4.22513 9.69405 4.18833C9.69405 4.15154 9.70183 4.11511 9.71696 4.08112C9.73208 4.04713 9.75425 4.01625 9.7822 3.99023C9.83864 3.9377 9.9152 3.90818 9.99502 3.90818C10.0345 3.90818 10.0737 3.91543 10.1102 3.9295C10.1467 3.94358 10.1799 3.96422 10.2078 3.99023L12.6263 6.24283C12.6681 6.28199 12.6966 6.33177 12.7081 6.38593C12.7196 6.44009 12.7136 6.49621 12.691 6.54723C12.6683 6.59825 12.6299 6.64189 12.5807 6.67267C12.5315 6.70346 12.4736 6.72 12.4143 6.72023ZM9.40619 2.80023H4.59329C4.51351 2.80023 4.437 2.77073 4.38058 2.71822C4.32417 2.66571 4.29248 2.59449 4.29248 2.52023C4.29248 2.44597 4.32417 2.37475 4.38058 2.32224C4.437 2.26973 4.51351 2.24023 4.59329 2.24023H9.40619C9.48597 2.24023 9.56248 2.26973 9.61889 2.32224C9.6753 2.37475 9.707 2.44597 9.707 2.52023C9.707 2.59449 9.6753 2.66571 9.61889 2.71822C9.56248 2.77073 9.48597 2.80023 9.40619 2.80023ZM7.60135 4.48023H4.59329C4.51351 4.48023 4.437 4.45073 4.38058 4.39822C4.32417 4.34571 4.29248 4.27449 4.29248 4.20023C4.29248 4.12597 4.32417 4.05475 4.38058 4.00224C4.437 3.94973 4.51351 3.92023 4.59329 3.92023H7.60135C7.68113 3.92023 7.75764 3.94973 7.81405 4.00224C7.87047 4.05475 7.90216 4.12597 7.90216 4.20023C7.90216 4.27449 7.87047 4.34571 7.81405 4.39822C7.75764 4.45073 7.68113 4.48023 7.60135 4.48023ZM5.79651 6.16023H4.59329C4.51351 6.16023 4.437 6.13073 4.38058 6.07822C4.32417 6.02571 4.29248 5.95449 4.29248 5.88023C4.29248 5.80597 4.32417 5.73475 4.38058 5.68224C4.437 5.62973 4.51351 5.60023 4.59329 5.60023H5.79651C5.87629 5.60023 5.9528 5.62973 6.00922 5.68224C6.06563 5.73475 6.09732 5.80597 6.09732 5.88023C6.09732 5.95449 6.06563 6.02571 6.00922 6.07822C5.9528 6.13073 5.87629 6.16023 5.79651 6.16023Z" fill="#FF8202" stroke="#FF8202" stroke-width="0.5"/>
</g>
<defs>
<clipPath id="clip0_544_809">
<rect width="15.0403" height="14" fill="white" transform="translate(0.682861)"/>
</clipPath>
</defs>
</svg>
